# xmcd
#
# Track frame offsets:
#	187
#	16562
#	29205
#	38122
#	57237
#	70252
#	85827
#	100222
#	116537
#	136675
#	153317
#	169955
#
# Disc length: 2453 seconds
#
# Revision: 1
# Processed by: cddbd v1.5.2PL0 Copyright (c) Steve Scherf et al.
# Submitted via: EZCDAudioConverter 6.0.5.1
#
DISCID=9509930c
DTITLE=Keith Whitley - Don't Close Your Eyes
DYEAR=1988
DGENRE=Country
TTITLE0=Flying Colors
TTITLE1=It's All Coming Back to Me Now
TTITLE2=Lucky Dog
TTITLE3=Don't Close Your Eyes
TTITLE4=The Birmingham Turnaround
TTITLE5=Some Old Side Road
TTITLE6=Would These Arms Be in Your Way
TTITLE7=I'm No Stranger to the Rain
TTITLE8=I Never Go Around Mirrors
TTITLE9=When You Say Nothing at All
TTITLE10=A Day in the Life of a Fool
TTITLE11=Honky Tonk Heart
EXTD=
EXTT0=
EXTT1=
EXTT2=
EXTT3=
EXTT4=
EXTT5=
EXTT6=
EXTT7=
EXTT8=
EXTT9=
EXTT10=
EXTT11=
PLAYORDER=
